{
  "accessors": [
    {
      "bufferView": 1,
      "componentType": 5126,
      "count": 469,
      "max": [
        204.60295104980469,
        5.5711159706115723,
        204.61508178710938
      ],
      "min": [
        -204.59751892089844,
        -204.58645629882812,
        -204.58538818359375
      ],
      "type": "VEC3"
    },
    {
      "bufferView": 1,
      "byteOffset": 5628,
      "componentType": 5126,
      "count": 469,
      "max": [
        1,
        1,
        1
      ],
      "min": [
        -1,
        -1,
        -1
      ],
      "type": "VEC3"
    },
    {
      "bufferView": 2,
      "componentType": 5126,
      "count": 469,
      "max": [
        0,
        0,
        0,
        0
      ],
      "min": [
        0,
        0,
        0,
        0
      ],
      "type": "VEC4"
    },
    {
      "bufferView": 2,
      "byteOffset": 7504,
      "componentType": 5126,
      "count": 469,
      "max": [
        1,
        1,
        0.017933789640665054,
        1
      ],
      "min": [
        -0.99523240327835083,
        -1,
        -0.017933916300535202,
        -1
      ],
      "type": "VEC4"
    },
    {
      "bufferView": 0,
      "componentType": 5125,
      "count": 1890,
      "max": [
        468
      ],
      "min": [
        0
      ],
      "type": "SCALAR"
    },
    {
      "bufferView": 1,
      "byteOffset": 11256,
      "componentType": 5126,
      "count": 19408,
      "max": [
        2918.82666015625,
        264.69000244140625,
        615.94915771484375
      ],
      "min": [
        -621.15960693359375,
        -8704.529296875,
        -615.94915771484375
      ],
      "type": "VEC3"
    },
    {
      "bufferView": 1,
      "byteOffset": 244152,
      "componentType": 5126,
      "count": 19408,
      "max": [
        1,
        1,
        1
      ],
      "min": [
        -1,
        -1,
        -1
      ],
      "type": "VEC3"
    },
    {
      "bufferView": 2,
      "byteOffset": 15008,
      "componentType": 5126,
      "count": 19408,
      "max": [
        0,
        0,
        0,
        0
      ],
      "min": [
        0,
        0,
        0,
        0
      ],
      "type": "VEC4"
    },
    {
      "bufferView": 2,
      "byteOffset": 325536,
      "componentType": 5126,
      "count": 19408,
      "max": [
        0,
        0,
        0,
        1
      ],
      "min": [
        0,
        0,
        0,
        1
      ],
      "type": "VEC4"
    },
    {
      "bufferView": 0,
      "byteOffset": 7560,
      "componentType": 5125,
      "count": 94590,
      "max": [
        19407
      ],
      "min": [
        0
      ],
      "type": "SCALAR"
    }
  ],
  "asset": {
    "generator": "Sketchfab (OSG glTF plugin)",
    "version": "2.0"
  },
  "bufferViews": [
    {
      "buffer": 0,
      "byteLength": 385920,
      "byteOffset": 0,
      "name": "ScalarBufferView",
      "target": 34963
    },
    {
      "buffer": 0,
      "byteLength": 477048,
      "byteOffset": 385920,
      "byteStride": 12,
      "name": "Vec4BufferView",
      "target": 34962
    },
    {
      "buffer": 0,
      "byteLength": 636064,
      "byteOffset": 862968,
      "byteStride": 16,
      "name": "MatrixBufferView",
      "target": 34962
    }
  ],
  "buffers": [
    {
      "byteLength": 1499032,
      "uri": "scene.bin"
    }
  ],
  "extensionsRequired": [
    "KHR_materials_pbrSpecularGlossiness"
  ],
  "extensionsUsed": [
    "KHR_materials_pbrSpecularGlossiness"
  ],
  "materials": [
    {
      "doubleSided": true,
      "emissiveFactor": [
        0,
        0,
        0
      ],
      "extensions": {
        "KHR_materials_pbrSpecularGlossiness": {
          "diffuseFactor": [
            0.095037192199999995,
            0.095037192199999995,
            0.095037192199999995,
            1
          ],
          "glossinessFactor": 0.40000000000000002,
          "specularFactor": [
            0.18464176830000001,
            0.18464176830000001,
            0.18464176830000001
          ]
        }
      },
      "name": "Collada visual scene group"
    },
    {
      "doubleSided": true,
      "emissiveFactor": [
        1,
        1,
        0
      ],
      "extensions": {
        "KHR_materials_pbrSpecularGlossiness": {
          "diffuseFactor": [
            0.75796976250000003,
            1,
            0,
            1
          ],
          "glossinessFactor": 1,
          "specularFactor": [
            0.92135604699999996,
            1,
            0
          ]
        }
      },
      "name": "Bulb"
    }
  ],
  "meshes": [
    {
      "primitives": [
        {
          "attributes": {
            "COLOR_0": 2,
            "NORMAL": 1,
            "POSITION": 0,
            "TANGENT": 3
          },
          "indices": 4,
          "material": 0,
          "mode": 4
        }
      ]
    },
    {
      "primitives": [
        {
          "attributes": {
            "COLOR_0": 7,
            "NORMAL": 6,
            "POSITION": 5,
            "TANGENT": 8
          },
          "indices": 9,
          "material": 0,
          "mode": 4
        }
      ]
    }
  ],
  "nodes": [
    {
      "children": [
        1
      ],
      "name": "RootNode (gltf orientation matrix)",
      "rotation": [
        -0.70710678118654746,
        -0,
        -0,
        0.70710678118654757
      ]
    },
    {
      "children": [
        2
      ],
      "name": "RootNode (model correction matrix)"
    },
    {
      "children": [
        3,
        5
      ],
      "matrix": [
        1,
        0,
        0,
        0,
        0,
        -4.3711390063094768e-08,
        0.999999999999999,
        0,
        0,
        -0.999999999999999,
        -4.3711390063094768e-08,
        0,
        0,
        0,
        0,
        1
      ],
      "name": "Collada visual scene group"
    },
    {
      "children": [
        4
      ],
      "matrix": [
        1.1451249999999999,
        0,
        0,
        0,
        0,
        1.1451249999999999,
        0,
        0,
        0,
        0,
        1.1451249999999999,
        0,
        -2617.7658689999998,
        4037.5734859999998,
        0.000176,
        1
      ],
      "name": "Bulb"
    },
    {
      "mesh": 0,
      "name": ""
    },
    {
      "children": [
        6
      ],
      "matrix": [
        1,
        0,
        0,
        0,
        0,
        1,
        0,
        0,
        0,
        0,
        1,
        0,
        -2621.857422,
        4169.5585940000001,
        0.00018200000000000001,
        1
      ],
      "name": "Frame"
    },
    {
      "mesh": 1,
      "name": ""
    }
  ],
  "scene": 0,
  "scenes": [
    {
      "name": "OSG_Scene",
      "nodes": [
        0
      ]
    }
  ]
}

